{
    "accessors" : [
        {
            "bufferView" : 0,
            "componentType" : 5123,
            "count" : 68796,
            "max" : [
                58579
            ],
            "min" : [
                0
            ],
            "type" : "SCALAR"
        },
        {
            "bufferView" : 1,
            "componentType" : 5126,
            "count" : 58580,
            "max" : [
                6.978200912475586,
                0.4685710072517395,
                7.702700138092041
            ],
            "min" : [
                -7.1848039627075195,
                -0.03524100035429001,
                -11.406999588012695
            ],
            "type" : "VEC3"
        },
        {
            "bufferView" : 2,
            "componentType" : 5126,
            "count" : 58580,
            "max" : [
                1.0,
                1.0,
                1.0
            ],
            "min" : [
                -1.0,
                -1.0,
                -1.0
            ],
            "type" : "VEC3"
        },
        {
            "bufferView" : 3,
            "componentType" : 5126,
            "count" : 58580,
            "max" : [
                1.0,
                1.0,
                1.0,
                1.0
            ],
            "min" : [
                -1.0,
                -1.0,
                -1.0,
                -1.0
            ],
            "type" : "VEC4"
        },
        {
            "bufferView" : 4,
            "componentType" : 5126,
            "count" : 58580,
            "max" : [
                0.9799999594688416,
                0.9900000002235174
            ],
            "min" : [
                0.009999999776482582,
                0.009999990463256836
            ],
            "type" : "VEC2"
        }
    ],
    "asset" : {
        "generator" : "Khronos Blender glTF 2.0 exporter",
        "version" : "2.0"
    },
    "bufferViews" : [
        {
            "buffer" : 0,
            "byteLength" : 137592,
            "byteOffset" : 0,
            "target" : 34963
        },
        {
            "buffer" : 0,
            "byteLength" : 702960,
            "byteOffset" : 137592,
            "target" : 34962
        },
        {
            "buffer" : 0,
            "byteLength" : 702960,
            "byteOffset" : 840552,
            "target" : 34962
        },
        {
            "buffer" : 0,
            "byteLength" : 937280,
            "byteOffset" : 1543512,
            "target" : 34962
        },
        {
            "buffer" : 0,
            "byteLength" : 468640,
            "byteOffset" : 2480792,
            "target" : 34962
        }
    ],
    "buffers" : [
        {
            "byteLength" : 2949432,
            "uri" : "Bldgs.bin"
        }
    ],
    "materials" : [
        {
            "name" : "default",
            "pbrMetallicRoughness" : {
                "baseColorFactor" : [
                    0.4704000066280365,
                    0.4704000066280365,
                    0.4704000066280365,
                    1.0
                ],
                "metallicFactor" : 0.0
            }
        }
    ],
    "meshes" : [
        {
            "name" : "Untitled.430",
            "primitives" : [
                {
                    "attributes" : {
                        "NORMAL" : 2,
                        "POSITION" : 1,
                        "TANGENT" : 3,
                        "TEXCOORD_0" : 4
                    },
                    "indices" : 0,
                    "material" : 0
                }
            ]
        }
    ],
    "nodes" : [
        {
            "mesh" : 0,
            "name" : "osm_polys_structure_bldgs_large_397835465",
            "rotation" : [
                -2.1855694143368964e-08,
                0.0,
                -0.0,
                1.0
            ],
            "scale" : [
                171.20237731933594,
                171.20237731933594,
                171.20237731933594
            ],
            "translation" : [
                -3.3454818725585938,
                -4.9554595947265625,
                69.69647216796875
            ]
        }
    ],
    "scene" : 0,
    "scenes" : [
        {
            "name" : "Scene",
            "nodes" : [
                0
            ]
        }
    ]
}
