{
    "accessors" : [
        {
            "bufferView" : 0,
            "componentType" : 5125,
            "count" : 2999979,
            "max" : [
                528898
            ],
            "min" : [
                0
            ],
            "type" : "SCALAR"
        },
        {
            "bufferView" : 1,
            "componentType" : 5126,
            "count" : 528899,
            "max" : [
                6.756944179534912,
                4.177494049072266,
                5.330558776855469
            ],
            "min" : [
                -6.44954252243042,
                -3.832200050354004,
                -5.369431018829346
            ],
            "type" : "VEC3"
        },
        {
            "bufferView" : 2,
            "componentType" : 5126,
            "count" : 528899,
            "max" : [
                0.999969482421875,
                0.999969482421875,
                0.999786376953125
            ],
            "min" : [
                -0.999969482421875,
                -0.999908447265625,
                -0.999969482421875
            ],
            "type" : "VEC3"
        },
        {
            "bufferView" : 3,
            "componentType" : 5126,
            "count" : 528899,
            "max" : [
                1.0,
                0.999997079372406,
                0.9999635219573975,
                1.0
            ],
            "min" : [
                -0.9999989867210388,
                -0.9999943375587463,
                -0.9999853372573853,
                -1.0
            ],
            "type" : "VEC4"
        },
        {
            "bufferView" : 4,
            "componentType" : 5126,
            "count" : 528899,
            "max" : [
                0.9971210360527039,
                0.9987517148256302
            ],
            "min" : [
                0.000633140210993588,
                0.0023382902145385742
            ],
            "type" : "VEC2"
        }
    ],
    "asset" : {
        "generator" : "Khronos Blender glTF 2.0 exporter",
        "version" : "2.0"
    },
    "bufferViews" : [
        {
            "buffer" : 0,
            "byteLength" : 11999916,
            "byteOffset" : 0,
            "target" : 34963
        },
        {
            "buffer" : 0,
            "byteLength" : 6346788,
            "byteOffset" : 11999916,
            "target" : 34962
        },
        {
            "buffer" : 0,
            "byteLength" : 6346788,
            "byteOffset" : 18346704,
            "target" : 34962
        },
        {
            "buffer" : 0,
            "byteLength" : 8462384,
            "byteOffset" : 24693492,
            "target" : 34962
        },
        {
            "buffer" : 0,
            "byteLength" : 4231192,
            "byteOffset" : 33155876,
            "target" : 34962
        }
    ],
    "buffers" : [
        {
            "byteLength" : 37387068,
            "uri" : "Dublin.bin"
        }
    ],
    "images" : [
        {
            "name" : "texture0",
            "uri" : "texture0.jpg"
        }
    ],
    "materials" : [
        {
            "name" : "material0",
            "pbrMetallicRoughness" : {
			
			"baseColorFactor": [ 2.0, 2.0, 2.0, 2.0 ],
            "baseColorTexture": { "index": 0 },
            "roughnessFactor": 0.9,
            "metallicFactor": 0.0
        },
			"extensions": {
                "KHR_materials_unlit": {}
            }
        }
    ],
	
    "meshes" : [
        {
            "name" : "Model",
            "primitives" : [
                {
                    "attributes" : {
                        "NORMAL" : 2,
                        "POSITION" : 1,
                        "TANGENT" : 3,
                        "TEXCOORD_0" : 4
                    },
                    "indices" : 0,
                    "material" : 0
                }
            ]
        }
    ],
    "nodes" : [
        {
            "mesh" : 0,
            "name" : "Model",
            "rotation" : [
                0.32256779074668884,
                0.046344272792339325,
                0.0007998732035048306,
                0.9454107880592346
            ],
            "translation" : [
                0.35239681601524353,
                0.3278743028640747,
                0.18654879927635193
            ]
        }
    ],
    "samplers" : [
        {}
    ],
    "scene" : 0,
    "scenes" : [
        {
            "name" : "Scene",
            "nodes" : [
                0
            ]
        }
    ],
    "textures" : [
        {
            "sampler" : 0,
            "source" : 0
        }
    ]
}
