{
    "accessors" : [
        {
            "bufferView" : 0,
            "componentType" : 5125,
            "count" : 1815195,
            "max" : [
                414099
            ],
            "min" : [
                0
            ],
            "type" : "SCALAR"
        },
        {
            "bufferView" : 1,
            "componentType" : 5126,
            "count" : 414100,
            "max" : [
                141.39999389648438,
                -111.31400299072266,
                119.76799774169922
            ],
            "min" : [
                -126.16600036621094,
                -139.45199584960938,
                -128.63999938964844
            ],
            "type" : "VEC3"
        },
        {
            "bufferView" : 2,
            "componentType" : 5126,
            "count" : 414100,
            "max" : [
                0.999969482421875,
                1.0,
                0.999969482421875
            ],
            "min" : [
                -0.999969482421875,
                -0.99993896484375,
                -0.999969482421875
            ],
            "type" : "VEC3"
        },
        {
            "bufferView" : 3,
            "componentType" : 5126,
            "count" : 414100,
            "max" : [
                0.9999991655349731,
                0.9999850988388062,
                0.9999972581863403,
                1.0
            ],
            "min" : [
                -0.9999933242797852,
                -1.0,
                -0.9999954104423523,
                -1.0
            ],
            "type" : "VEC4"
        },
        {
            "bufferView" : 4,
            "componentType" : 5126,
            "count" : 414100,
            "max" : [
                0.999550998210907,
                0.9995505909901112
            ],
            "min" : [
                0.0004494090098887682,
                0.0004490017890930176
            ],
            "type" : "VEC2"
        }
    ],
    "asset" : {
        "generator" : "Khronos Blender glTF 2.0 exporter",
        "version" : "2.0"
    },
    "bufferViews" : [
        {
            "buffer" : 0,
            "byteLength" : 7260780,
            "byteOffset" : 0,
            "target" : 34963
        },
        {
            "buffer" : 0,
            "byteLength" : 4969200,
            "byteOffset" : 7260780,
            "target" : 34962
        },
        {
            "buffer" : 0,
            "byteLength" : 4969200,
            "byteOffset" : 12229980,
            "target" : 34962
        },
        {
            "buffer" : 0,
            "byteLength" : 6625600,
            "byteOffset" : 17199180,
            "target" : 34962
        },
        {
            "buffer" : 0,
            "byteLength" : 3312800,
            "byteOffset" : 23824780,
            "target" : 34962
        }
    ],
    "buffers" : [
        {
            "byteLength" : 27137580,
            "uri" : "SheffieldTexture4.bin"
        }
    ],
    "images" : [
        {
            "name" : "Monteney School_texture",
            "uri" : "Monteney School_texture.jpg"
        }
    ],
    "materials" : [
        {
            "name" : "texture",
            "pbrMetallicRoughness" : {
			
			"baseColorFactor": [ 1.0, 1.0, 1.0, 1.0 ],
            "baseColorTexture": { "index": 0 },
            "roughnessFactor": 0.9,
            "metallicFactor": 0.0
        },
			"extensions": {
                "KHR_materials_unlit": {}
            }
        }
    ],
    "meshes" : [
        {
            "name" : "Untitled",
            "primitives" : [
                {
                    "attributes" : {
                        "NORMAL" : 2,
                        "POSITION" : 1,
                        "TANGENT" : 3,
                        "TEXCOORD_0" : 4
                    },
                    "indices" : 0,
                    "material" : 0
                }
            ]
        }
    ],
    "nodes" : [
        {
            "mesh" : 0,
            "name" : "default",
            "rotation" : [
                -8.146034247147327e-08,
                0.0,
                -0.0,
                1.0
            ],
            "scale" : [
                0.02539999969303608,
                0.02539999969303608,
                0.02539999969303608
            ]
        }
    ],
    "samplers" : [
        {}
    ],
    "scene" : 0,
    "scenes" : [
        {
            "name" : "Scene",
            "nodes" : [
                0
            ]
        }
    ],
    "textures" : [
        {
            "sampler" : 0,
            "source" : 0
        }
    ]
}
