{
    "accessors" : [
        {
            "bufferView" : 0,
            "componentType" : 5121,
            "count" : 372,
            "max" : [
                191
            ],
            "min" : [
                0
            ],
            "type" : "SCALAR"
        },
        {
            "bufferView" : 1,
            "componentType" : 5126,
            "count" : 192,
            "max" : [
                8.21500015258789,
                15.0,
                8.104999542236328
            ],
            "min" : [
                -8.21500015258789,
                -15.0,
                -8.104999542236328
            ],
            "type" : "VEC3"
        },
        {
            "bufferView" : 2,
            "componentType" : 5126,
            "count" : 192,
            "max" : [
                0.9950541257858276,
                1.0,
                0.9953119158744812
            ],
            "min" : [
                -0.9950541853904724,
                -1.0,
                -0.995311975479126
            ],
            "type" : "VEC3"
        },
        {
            "bufferView" : 3,
            "componentType" : 5121,
            "count" : 36,
            "max" : [
                23
            ],
            "min" : [
                0
            ],
            "type" : "SCALAR"
        },
        {
            "bufferView" : 4,
            "componentType" : 5126,
            "count" : 24,
            "max" : [
                10.0,
                7.0,
                14.000000953674316
            ],
            "min" : [
                -10.0,
                -7.0,
                -14.000000953674316
            ],
            "type" : "VEC3"
        },
        {
            "bufferView" : 5,
            "componentType" : 5126,
            "count" : 24,
            "max" : [
                0.9999999403953552,
                1.0,
                1.0
            ],
            "min" : [
                -0.9999999403953552,
                -1.0,
                -1.0
            ],
            "type" : "VEC3"
        },
        {
            "bufferView" : 6,
            "componentType" : 5121,
            "count" : 36,
            "max" : [
                23
            ],
            "min" : [
                0
            ],
            "type" : "SCALAR"
        },
        {
            "bufferView" : 7,
            "componentType" : 5126,
            "count" : 24,
            "max" : [
                10.0,
                6.494999885559082,
                14.000000953674316
            ],
            "min" : [
                -10.0,
                -6.494999885559082,
                -14.000000953674316
            ],
            "type" : "VEC3"
        },
        {
            "bufferView" : 8,
            "componentType" : 5126,
            "count" : 24,
            "max" : [
                1.0,
                1.0,
                1.0
            ],
            "min" : [
                -1.0,
                -1.0,
                -1.0
            ],
            "type" : "VEC3"
        },
        {
            "bufferView" : 9,
            "componentType" : 5121,
            "count" : 36,
            "max" : [
                23
            ],
            "min" : [
                0
            ],
            "type" : "SCALAR"
        },
        {
            "bufferView" : 10,
            "componentType" : 5126,
            "count" : 24,
            "max" : [
                47.790000915527344,
                7.0,
                12.61500072479248
            ],
            "min" : [
                -47.790000915527344,
                -7.0,
                -12.61500072479248
            ],
            "type" : "VEC3"
        },
        {
            "bufferView" : 11,
            "componentType" : 5126,
            "count" : 24,
            "max" : [
                1.0,
                1.0,
                1.0
            ],
            "min" : [
                -1.0,
                -1.0,
                -1.0
            ],
            "type" : "VEC3"
        }
    ],
    "asset" : {
        "generator" : "Khronos Blender glTF 2.0 exporter",
        "version" : "2.0"
    },
    "bufferViews" : [
        {
            "buffer" : 0,
            "byteLength" : 372,
            "byteOffset" : 0,
            "target" : 34963
        },
        {
            "buffer" : 0,
            "byteLength" : 2304,
            "byteOffset" : 372,
            "target" : 34962
        },
        {
            "buffer" : 0,
            "byteLength" : 2304,
            "byteOffset" : 2676,
            "target" : 34962
        },
        {
            "buffer" : 0,
            "byteLength" : 36,
            "byteOffset" : 4980,
            "target" : 34963
        },
        {
            "buffer" : 0,
            "byteLength" : 288,
            "byteOffset" : 5016,
            "target" : 34962
        },
        {
            "buffer" : 0,
            "byteLength" : 288,
            "byteOffset" : 5304,
            "target" : 34962
        },
        {
            "buffer" : 0,
            "byteLength" : 36,
            "byteOffset" : 5592,
            "target" : 34963
        },
        {
            "buffer" : 0,
            "byteLength" : 288,
            "byteOffset" : 5628,
            "target" : 34962
        },
        {
            "buffer" : 0,
            "byteLength" : 288,
            "byteOffset" : 5916,
            "target" : 34962
        },
        {
            "buffer" : 0,
            "byteLength" : 36,
            "byteOffset" : 6204,
            "target" : 34963
        },
        {
            "buffer" : 0,
            "byteLength" : 288,
            "byteOffset" : 6240,
            "target" : 34962
        },
        {
            "buffer" : 0,
            "byteLength" : 288,
            "byteOffset" : 6528,
            "target" : 34962
        }
    ],
    "buffers" : [
        {
            "byteLength" : 6816,
            "uri" : "Triggers_Castle.bin"
        }
    ],
    "materials" : [
        {
            "name" : "StdMat",
            "pbrMetallicRoughness" : {
                "baseColorFactor" : [
                    1.0,
                    0.057930316776037216,
                    0.04105193167924881,
                    1.0
                ],
                "metallicFactor" : 0.0
            }
        }
    ],
    "meshes" : [
        {
            "name" : "Cylinder",
            "primitives" : [
                {
                    "attributes" : {
                        "NORMAL" : 2,
                        "POSITION" : 1
                    },
                    "indices" : 0,
                    "material" : 0
                }
            ]
        },
        {
            "name" : "Cube.001",
            "primitives" : [
                {
                    "attributes" : {
                        "NORMAL" : 5,
                        "POSITION" : 4
                    },
                    "indices" : 3,
                    "material" : 0
                }
            ]
        },
        {
            "name" : "Cube",
            "primitives" : [
                {
                    "attributes" : {
                        "NORMAL" : 8,
                        "POSITION" : 7
                    },
                    "indices" : 6,
                    "material" : 0
                }
            ]
        },
        {
            "name" : "Cube.002",
            "primitives" : [
                {
                    "attributes" : {
                        "NORMAL" : 11,
                        "POSITION" : 10
                    },
                    "indices" : 9,
                    "material" : 0
                }
            ]
        }
    ],
    "nodes" : [
        {
            "mesh" : 2,
            "name" : "Cube",
            "rotation" : [
                0.0,
                0.14521966874599457,
                -0.0,
                0.9893995523452759
            ],
            "scale" : [
                0.10044986009597778,
                0.10044986009597778,
                0.10044986009597778
            ],
            "translation" : [
                -1.1833610534667969,
                4.009148120880127,
                -2.030702590942383
            ]
        },
        {
            "mesh" : 1,
            "name" : "Cube.001",
            "rotation" : [
                0.0,
                0.14521966874599457,
                -0.0,
                0.9893995523452759
            ],
            "scale" : [
                0.10044986009597778,
                0.10044986009597778,
                0.10044986009597778
            ],
            "translation" : [
                1.8927688598632812,
                4.122214317321777,
                -3.233552932739258
            ]
        },
        {
            "mesh" : 3,
            "name" : "Cube.002",
            "rotation" : [
                0.0,
                0.16848935186862946,
                -0.0,
                0.9857034683227539
            ],
            "scale" : [
                0.10044991970062256,
                0.10044986009597778,
                0.10044991970062256
            ],
            "translation" : [
                1.1632232666015625,
                3.9891300201416016,
                4.052980422973633
            ]
        },
        {
            "mesh" : 0,
            "name" : "Cylinder",
            "scale" : [
                0.10044986009597778,
                0.10044986009597778,
                0.10044986009597778
            ],
            "translation" : [
                6.371448516845703,
                4.235650062561035,
                2.0905399322509766
            ]
        }
    ],
    "scene" : 0,
    "scenes" : [
        {
            "name" : "Scene",
            "nodes" : [
                3,
                2,
                1,
                0
            ]
        }
    ]
}
