{
    "accessors" : [
        {
            "bufferView" : 0,
            "componentType" : 5125,
            "count" : 11393421,
            "max" : [
                10831697
            ],
            "min" : [
                0
            ],
            "type" : "SCALAR"
        },
        {
            "bufferView" : 1,
            "componentType" : 5126,
            "count" : 10831698,
            "max" : [
                -5965.46875,
                29.85367202758789,
                -2544.796875
            ],
            "min" : [
                -6145.4375,
                -10.329760551452637,
                -2724.75
            ],
            "type" : "VEC3"
        },
        {
            "bufferView" : 2,
            "componentType" : 5126,
            "count" : 10831698,
            "max" : [
                1.0,
                1.0,
                1.0
            ],
            "min" : [
                -1.0,
                -1.0,
                -1.0
            ],
            "type" : "VEC3"
        }
    ],
    "asset" : {
        "generator" : "Khronos Blender glTF 2.0 exporter",
        "version" : "2.0"
    },
    "bufferViews" : [
        {
            "buffer" : 0,
            "byteLength" : 45573684,
            "byteOffset" : 0,
            "target" : 34963
        },
        {
            "buffer" : 0,
            "byteLength" : 129980376,
            "byteOffset" : 45573684,
            "target" : 34962
        },
        {
            "buffer" : 0,
            "byteLength" : 129980376,
            "byteOffset" : 175554060,
            "target" : 34962
        }
    ],
    "buffers" : [
        {
            "byteLength" : 305534436,
            "uri" : "TowerDublin2.bin"
        }
    ],
    "meshes" : [
        {
            "name" : "DubTest",
            "primitives" : [
                {
                    "attributes" : {
                        "NORMAL" : 2,
                        "POSITION" : 1
                    },
                    "indices" : 0
                }
            ]
        }
    ],
    "nodes" : [
        {
            "mesh" : 0,
            "name" : "DubTest"
        }
    ],
    "scene" : 0,
    "scenes" : [
        {
            "name" : "Scene",
            "nodes" : [
                0
            ]
        }
    ]
}
