{
    "accessors" : [
        {
            "bufferView" : 0,
            "componentType" : 5123,
            "count" : 23100,
            "max" : [
                10271
            ],
            "min" : [
                0
            ],
            "type" : "SCALAR"
        },
        {
            "bufferView" : 1,
            "componentType" : 5126,
            "count" : 10272,
            "max" : [
                1672.188720703125,
                0.0,
                1107.8291015625
            ],
            "min" : [
                -1259.643798828125,
                0.0,
                -842.0419921875
            ],
            "type" : "VEC3"
        },
        {
            "bufferView" : 2,
            "componentType" : 5126,
            "count" : 10272,
            "max" : [
                0.0,
                1.0,
                -0.0
            ],
            "min" : [
                0.0,
                -1.0,
                -0.0
            ],
            "type" : "VEC3"
        }
    ],
    "asset" : {
        "generator" : "Khronos Blender glTF 2.0 exporter",
        "version" : "2.0"
    },
    "bufferViews" : [
        {
            "buffer" : 0,
            "byteLength" : 46200,
            "byteOffset" : 0,
            "target" : 34963
        },
        {
            "buffer" : 0,
            "byteLength" : 123264,
            "byteOffset" : 46200,
            "target" : 34962
        },
        {
            "buffer" : 0,
            "byteLength" : 123264,
            "byteOffset" : 169464,
            "target" : 34962
        }
    ],
    "buffers" : [
        {
            "byteLength" : 292728,
            "uri" : "dublinCenterwebmer.bin"
        }
    ],
    "meshes" : [
        {
            "name" : "OSMwebmerc",
            "primitives" : [
                {
                    "attributes" : {
                        "NORMAL" : 2,
                        "POSITION" : 1
                    },
                    "indices" : 0
                }
            ]
        }
    ],
    "nodes" : [
        {
            "mesh" : 0,
            "name" : "OSMwebmerc",
            "translation" : [
                -206.2724609375,
                0.0,
                -132.89358520507812
            ]
        }
    ],
    "scene" : 0,
    "scenes" : [
        {
            "name" : "Scene",
            "nodes" : [
                0
            ]
        }
    ]
}
