{
    "accessors" : [
        {
            "bufferView" : 0,
            "componentType" : 5123,
            "count" : 77193,
            "max" : [
                47524
            ],
            "min" : [
                0
            ],
            "type" : "SCALAR"
        },
        {
            "bufferView" : 1,
            "componentType" : 5126,
            "count" : 47525,
            "max" : [
                1148.1715087890625,
                42.0,
                823.1930541992188
            ],
            "min" : [
                -1198.5657958984375,
                0.0,
                -843.1823120117188
            ],
            "type" : "VEC3"
        },
        {
            "bufferView" : 2,
            "componentType" : 5126,
            "count" : 47525,
            "max" : [
                1.0,
                1.0,
                1.0
            ],
            "min" : [
                -1.0,
                0.0,
                -1.0
            ],
            "type" : "VEC3"
        }
    ],
    "asset" : {
        "generator" : "Khronos Blender glTF 2.0 exporter",
        "version" : "2.0"
    },
    "bufferViews" : [
        {
            "buffer" : 0,
            "byteLength" : 154386,
            "byteOffset" : 0,
            "target" : 34963
        },
        {
            "buffer" : 0,
            "byteLength" : 570300,
            "byteOffset" : 154388,
            "target" : 34962
        },
        {
            "buffer" : 0,
            "byteLength" : 570300,
            "byteOffset" : 724688,
            "target" : 34962
        }
    ],
    "buffers" : [
        {
            "byteLength" : 1294988,
            "uri" : "DublinCentre_WM_3857.bin"
        }
    ],
    "meshes" : [
        {
            "name" : "Areas:building",
            "primitives" : [
                {
                    "attributes" : {
                        "NORMAL" : 2,
                        "POSITION" : 1
                    },
                    "indices" : 0
                }
            ]
        }
    ],
    "nodes" : [
        {
            "mesh" : 0,
            "name" : "Areas:building"
        }
    ],
    "scene" : 0,
    "scenes" : [
        {
            "name" : "Scene",
            "nodes" : [
                0
            ]
        }
    ]
}
