{
    "accessors" : [
        {
            "bufferView" : 0,
            "componentType" : 5125,
            "count" : 221400,
            "max" : [
                81999
            ],
            "min" : [
                0
            ],
            "type" : "SCALAR"
        },
        {
            "bufferView" : 1,
            "componentType" : 5126,
            "count" : 82000,
            "max" : [
                29221.71875,
                0.0,
                1187638.75
            ],
            "min" : [
                -1063314.25,
                0.0,
                -54331.625
            ],
            "type" : "VEC3"
        },
        {
            "bufferView" : 2,
            "componentType" : 5126,
            "count" : 82000,
            "max" : [
                0.0,
                1.0,
                -0.0
            ],
            "min" : [
                0.0,
                0.9999999403953552,
                -0.0
            ],
            "type" : "VEC3"
        }
    ],
    "asset" : {
        "generator" : "Khronos Blender glTF 2.0 exporter",
        "version" : "2.0"
    },
    "bufferViews" : [
        {
            "buffer" : 0,
            "byteLength" : 885600,
            "byteOffset" : 0,
            "target" : 34963
        },
        {
            "buffer" : 0,
            "byteLength" : 984000,
            "byteOffset" : 885600,
            "target" : 34962
        },
        {
            "buffer" : 0,
            "byteLength" : 984000,
            "byteOffset" : 1869600,
            "target" : 34962
        }
    ],
    "buffers" : [
        {
            "byteLength" : 2853600,
            "uri" : "nodes.bin"
        }
    ],
    "meshes" : [
        {
            "name" : "MonNodes.001",
            "primitives" : [
                {
                    "attributes" : {
                        "NORMAL" : 2,
                        "POSITION" : 1
                    },
                    "indices" : 0
                }
            ]
        }
    ],
    "nodes" : [
        {
            "mesh" : 0,
            "name" : "MonNodes",
            "translation" : [
                6.103515625e-05,
                0.0,
                -0.0
            ]
        }
    ],
    "scene" : 0,
    "scenes" : [
        {
            "name" : "Scene",
            "nodes" : [
                0
            ]
        }
    ]
}
