{
    "accessors" : [
        {
            "bufferView" : 0,
            "componentType" : 5123,
            "count" : 59031,
            "max" : [
                36372
            ],
            "min" : [
                0
            ],
            "type" : "SCALAR"
        },
        {
            "bufferView" : 1,
            "componentType" : 5126,
            "count" : 36373,
            "max" : [
                614.4097900390625,
                42.0,
                442.866943359375
            ],
            "min" : [
                -637.0986938476562,
                0.0,
                -412.1685485839844
            ],
            "type" : "VEC3"
        },
        {
            "bufferView" : 2,
            "componentType" : 5126,
            "count" : 36373,
            "max" : [
                0.9999999403953552,
                1.0,
                0.9999999403953552
            ],
            "min" : [
                -1.0,
                0.0,
                -1.0
            ],
            "type" : "VEC3"
        }
    ],
    "asset" : {
        "generator" : "Khronos Blender glTF 2.0 exporter",
        "version" : "2.0"
    },
    "bufferViews" : [
        {
            "buffer" : 0,
            "byteLength" : 118062,
            "byteOffset" : 0,
            "target" : 34963
        },
        {
            "buffer" : 0,
            "byteLength" : 436476,
            "byteOffset" : 118064,
            "target" : 34962
        },
        {
            "buffer" : 0,
            "byteLength" : 436476,
            "byteOffset" : 554540,
            "target" : 34962
        }
    ],
    "buffers" : [
        {
            "byteLength" : 991016,
            "uri" : "dublinCenter.bin"
        }
    ],
    "meshes" : [
        {
            "name" : "Areas:building.002",
            "primitives" : [
                {
                    "attributes" : {
                        "NORMAL" : 2,
                        "POSITION" : 1
                    },
                    "indices" : 0
                }
            ]
        }
    ],
    "nodes" : [
        {
            "mesh" : 0,
            "name" : "Areas:building"
        }
    ],
    "scene" : 0,
    "scenes" : [
        {
            "name" : "Scene",
            "nodes" : [
                0
            ]
        }
    ]
}
