{
    "accessors" : [
        {
            "bufferView" : 0,
            "componentType" : 5123,
            "count" : 163674,
            "max" : [
                60619
            ],
            "min" : [
                0
            ],
            "type" : "SCALAR"
        },
        {
            "bufferView" : 1,
            "componentType" : 5126,
            "count" : 60620,
            "max" : [
                27902.5546875,
                0.0,
                33791.8046875
            ],
            "min" : [
                -30809.259765625,
                0.0,
                -46619.65625
            ],
            "type" : "VEC3"
        },
        {
            "bufferView" : 2,
            "componentType" : 5126,
            "count" : 60620,
            "max" : [
                0.0,
                1.0,
                -0.0
            ],
            "min" : [
                0.0,
                0.9999999403953552,
                -0.0
            ],
            "type" : "VEC3"
        }
    ],
    "asset" : {
        "generator" : "Khronos Blender glTF 2.0 exporter",
        "version" : "2.0"
    },
    "bufferViews" : [
        {
            "buffer" : 0,
            "byteLength" : 327348,
            "byteOffset" : 0,
            "target" : 34963
        },
        {
            "buffer" : 0,
            "byteLength" : 727440,
            "byteOffset" : 327348,
            "target" : 34962
        },
        {
            "buffer" : 0,
            "byteLength" : 727440,
            "byteOffset" : 1054788,
            "target" : 34962
        }
    ],
    "buffers" : [
        {
            "byteLength" : 1782228,
            "uri" : "Monument3857.bin"
        }
    ],
    "meshes" : [
        {
            "name" : "National_Monuments_Circle.001",
            "primitives" : [
                {
                    "attributes" : {
                        "NORMAL" : 2,
                        "POSITION" : 1
                    },
                    "indices" : 0
                }
            ]
        }
    ],
    "nodes" : [
        {
            "mesh" : 0,
            "name" : "National_Monuments_Circle",
            "translation" : [
                1381.0548095703125,
                0.0,
                -7739.4189453125
            ]
        }
    ],
    "scene" : 0,
    "scenes" : [
        {
            "name" : "Scene",
            "nodes" : [
                0
            ]
        }
    ]
}
