# Blender v2.79 (sub 0) OBJ File: 'window.blend'
# www.blender.org
mtllib frame.mtl
o window_trim_interior001
v 1.115798 0.493090 -1.995252
v -1.139384 0.493090 -1.995252
v -1.138916 0.473090 -1.994937
v 1.115330 0.473090 -1.994937
v 1.116837 0.509291 -1.995934
v -1.140424 0.509291 -1.995934
v 1.118310 0.520190 -1.996909
v -1.141897 0.520190 -1.996909
v 1.120086 0.524190 -1.998084
v -1.143673 0.524190 -1.998084
v 1.153433 0.524190 -2.020159
v -1.177020 0.524190 -2.020159
v 1.155287 0.519890 -2.021386
v -1.178882 0.519890 -2.021386
v 1.156803 0.508090 -2.022389
v -1.180398 0.508090 -2.022389
v 1.157825 0.490590 -2.023066
v -1.181421 0.490590 -2.023066
v 1.158207 0.469190 -2.023312
v -1.181793 0.469190 -2.023312
v 1.158207 -0.100810 -2.023312
v -1.181793 -0.100810 -2.023312
v 0.963272 -0.100810 -1.894307
v -0.986859 -0.100810 -1.894307
v 0.963272 0.123790 -1.894307
v -0.986859 0.123790 -1.894307
v 0.964295 0.182290 -1.894984
v -0.987881 0.182290 -1.894984
v 0.967084 0.230090 -1.896835
v -0.990680 0.230090 -1.896835
v 0.971234 0.262390 -1.899576
v -0.994821 0.262390 -1.899576
v 0.976303 0.274190 -1.902930
v -0.999889 0.274190 -1.902930
v 1.006496 0.274190 -1.922912
v -1.030082 0.274190 -1.922912
v 1.006496 0.308190 -1.922912
v -1.030082 0.308190 -1.922912
v 1.006790 0.311690 -1.923107
v -1.030377 0.311690 -1.923107
v 1.019006 0.321190 -1.931197
v -1.042593 0.321190 -1.931197
v 1.031231 0.345390 -1.939281
v -1.054817 0.345390 -1.939281
v 1.043447 0.379490 -1.947365
v -1.067033 0.379490 -1.947365
v 1.055663 0.418390 -1.955455
v -1.079249 0.418390 -1.955455
v 1.067887 0.457291 -1.963540
v -1.091474 0.457291 -1.963540
v 1.080103 0.491190 -1.971624
v -1.103690 0.491190 -1.971624
v 1.092319 0.515090 -1.979714
v -1.115906 0.515090 -1.979714
v 1.104543 0.524190 -1.987799
v -1.128130 0.524190 -1.987799
v 1.108035 0.519690 -1.990109
v -1.131622 0.519690 -1.990109
v 1.110799 0.507790 -1.991938
v -1.134385 0.507790 -1.991938
v 1.113077 0.490890 -1.993446
v -1.136664 0.490890 -1.993446
v 1.115087 0.471290 -1.994777
v -1.138674 0.471290 -1.994777
v 1.115798 0.493090 2.078626
v 1.115330 0.473090 2.078317
v 1.116837 0.509291 2.079314
v 1.118310 0.520190 2.080289
v 1.120086 0.524190 2.081459
v 1.153433 0.524190 2.103533
v 1.155287 0.519890 2.104760
v 1.156803 0.508090 2.105763
v 1.157825 0.490590 2.106440
v 1.158207 0.469190 2.106686
v 1.158207 -0.100810 2.106686
v 0.963272 -0.100810 1.977681
v 0.963272 0.123790 1.977681
v 0.964295 0.182290 1.978358
v 0.967084 0.230090 1.980210
v 0.971234 0.262390 1.982951
v 0.976303 0.274190 1.986305
v 1.006496 0.274190 2.006286
v 1.006496 0.308190 2.006286
v 1.006790 0.311690 2.006481
v 1.019006 0.321190 2.014571
v 1.031231 0.345390 2.022655
v 1.043447 0.379490 2.030740
v 1.055663 0.418390 2.038830
v 1.067887 0.457291 2.046914
v 1.080103 0.491190 2.054998
v 1.092319 0.515090 2.063088
v 1.104543 0.524190 2.071173
v 1.108035 0.519690 2.073483
v 1.110799 0.507790 2.075318
v 1.113077 0.490890 2.076820
v 1.115087 0.471290 2.078150
v -1.139393 0.493090 2.078626
v -1.138916 0.473090 2.078317
v -1.140424 0.509291 2.079314
v -1.141897 0.520190 2.080289
v -1.143673 0.524190 2.081459
v -1.177020 0.524190 2.103533
v -1.178882 0.519890 2.104760
v -1.180398 0.508090 2.105763
v -1.181421 0.490590 2.106440
v -1.181793 0.469190 2.106686
v -1.181793 -0.100810 2.106686
v -0.986859 -0.100810 1.977681
v -0.986859 0.123790 1.977681
v -0.987881 0.182290 1.978358
v -0.990680 0.230090 1.980210
v -0.994821 0.262390 1.982951
v -0.999889 0.274190 1.986305
v -1.030082 0.274190 2.006286
v -1.030082 0.308190 2.006286
v -1.030377 0.311690 2.006481
v -1.042593 0.321190 2.014571
v -1.054817 0.345390 2.022655
v -1.067033 0.379490 2.030740
v -1.079249 0.418390 2.038830
v -1.091474 0.457291 2.046914
v -1.103690 0.491190 2.054998
v -1.115906 0.515090 2.063088
v -1.128130 0.524190 2.071173
v -1.131622 0.519690 2.073483
v -1.134385 0.507790 2.075318
v -1.136664 0.490890 2.076820
v -1.138674 0.471290 2.078150
vn -0.0164 0.2384 0.9710
vn 0.0164 0.2384 0.9710
vn -0.0003 0.0124 0.9999
vn 0.0003 0.0123 0.9999
vn -0.0355 0.2889 0.9567
vn 0.0355 0.2889 0.9567
vn -0.0247 -0.0954 0.9951
vn 0.0247 -0.0953 0.9951
vn 0.0000 0.2016 0.9795
vn 0.0002 0.2021 0.9794
vn -0.0250 -0.0219 0.9994
vn 0.0250 -0.0219 0.9994
vn 0.0000 0.9322 0.3620
vn -0.0002 0.5105 -0.8599
vn 0.0001 0.5104 -0.8599
vn -0.0002 0.1629 -0.9866
vn 0.0002 0.1628 -0.9867
vn 0.0000 0.0603 -0.9982
vn 0.0004 0.0255 -0.9997
vn -0.0003 0.0253 -0.9997
vn 0.0001 0.0063 -1.0000
vn -0.0001 0.0061 -1.0000
vn 0.0000 0.0000 -1.0000
vn 0.0000 -1.0000 0.0000
vn 0.0000 0.0058 1.0000
vn 0.0000 0.0000 1.0000
vn 0.0000 0.0255 0.9997
vn 0.0000 0.0630 0.9980
vn 0.0000 0.1942 0.9810
vn 0.0000 0.9304 0.3665
vn 0.0000 1.0000 -0.0000
vn -0.0005 0.0589 0.9983
vn 0.0005 0.0589 0.9983
vn 0.0012 0.0587 0.9983
vn -0.0012 0.0587 0.9983
vn 0.0000 0.4168 0.9090
vn 0.0000 0.6483 0.7614
vn 0.0000 0.2629 0.9648
vn 0.0001 0.2141 0.9768
vn -0.0001 0.2141 0.9768
vn 0.0001 0.2033 0.9791
vn -0.0001 0.2033 0.9791
vn 0.0000 0.2206 0.9754
vn 0.0000 0.2035 0.9791
vn 0.0001 0.2870 0.9579
vn 0.0000 0.2873 0.9578
vn 0.0000 0.5633 0.8262
vn 0.0000 0.7465 -0.6654
vn 0.0000 0.2616 -0.9652
vn -0.0001 0.2620 -0.9651
vn -0.0008 0.1155 -0.9933
vn 0.0007 0.1156 -0.9933
vn 0.0000 0.0775 -0.9970
vn 0.0004 0.0685 -0.9977
vn -0.0004 0.0685 -0.9977
vn -0.0005 0.0919 0.9958
vn 0.0005 0.0919 0.9958
vn 0.0012 0.0917 0.9958
vn -0.0012 0.0917 0.9958
vn -0.9681 0.2499 -0.0172
vn -0.9681 0.2499 0.0175
vn -0.9997 0.0243 0.0002
vn -0.9997 0.0242 -0.0002
vn -0.9514 0.3058 -0.0364
vn -0.9514 0.3058 0.0362
vn -0.9967 -0.0774 -0.0263
vn -0.9966 -0.0774 0.0265
vn -0.9578 0.2874 -0.0003
vn -0.9579 0.2871 0.0000
vn -0.9994 0.0239 -0.0269
vn -0.9994 0.0239 0.0269
vn -0.4069 0.9135 0.0000
vn -0.4067 0.9136 0.0000
vn 0.7011 0.7131 -0.0004
vn 0.7011 0.7131 0.0004
vn 0.9687 0.2483 -0.0003
vn 0.9687 0.2483 0.0003
vn 0.9958 0.0916 0.0000
vn 0.9994 0.0359 -0.0004
vn 0.9994 0.0359 0.0004
vn 1.0000 0.0074 0.0000
vn 1.0000 0.0000 0.0000
vn -1.0000 0.0088 0.0000
vn -1.0000 0.0000 0.0000
vn -0.9993 0.0385 -0.0001
vn -0.9993 0.0386 0.0002
vn -0.9955 0.0942 0.0000
vn -0.9608 0.2771 0.0002
vn -0.9608 0.2774 0.0000
vn -0.4118 0.9113 0.0000
vn -0.9962 0.0871 -0.0005
vn -0.9962 0.0871 0.0005
vn -0.9962 0.0869 0.0013
vn -0.9962 0.0869 -0.0013
vn -0.8080 0.5892 0.0000
vn -0.8081 0.5890 -0.0001
vn -0.6139 0.7894 0.0000
vn -0.9228 0.3854 0.0000
vn -0.9488 0.3160 0.0000
vn -0.9541 0.2996 0.0000
vn -0.9467 0.3221 0.0000
vn -0.9540 0.2998 0.0000
vn -0.9134 0.4071 0.0000
vn -0.7274 0.6862 0.0000
vn 0.3986 0.9171 0.0000
vn 0.9195 0.3931 0.0002
vn 0.9194 0.3933 -0.0002
vn 0.9845 0.1755 -0.0008
vn 0.9845 0.1754 0.0008
vn 0.9931 0.1171 0.0000
vn 0.9931 0.1170 0.0000
vn 0.9947 0.1028 0.0004
vn 0.9947 0.1028 -0.0004
vn -0.9907 0.1361 -0.0005
vn -0.9907 0.1361 0.0005
vn -0.9907 0.1360 0.0011
vn -0.9907 0.1359 -0.0011
vn 0.0170 0.2423 -0.9701
vn -0.0167 0.2423 -0.9701
vn -0.0002 0.0164 -0.9999
vn 0.0002 0.0164 -0.9999
vn 0.0346 0.2853 -0.9578
vn -0.0348 0.2853 -0.9578
vn 0.0254 -0.0991 -0.9948
vn -0.0252 -0.0991 -0.9948
vn 0.0004 0.2017 -0.9794
vn -0.0004 0.2017 -0.9795
vn 0.0249 -0.0217 -0.9995
vn -0.0249 -0.0218 -0.9995
vn -0.0001 0.9322 -0.3618
vn 0.0001 0.9322 -0.3618
vn 0.0002 0.5103 0.8600
vn -0.0002 0.5105 0.8599
vn 0.0000 0.1631 0.9866
vn -0.0003 0.1627 0.9867
vn 0.0000 0.0603 0.9982
vn -0.0003 0.0255 0.9997
vn 0.0004 0.0255 0.9997
vn -0.0001 0.0061 1.0000
vn 0.0001 0.0062 1.0000
vn 0.0000 0.0058 -1.0000
vn 0.0000 0.0255 -0.9997
vn 0.0000 0.0630 -0.9980
vn 0.0000 0.1942 -0.9810
vn 0.0000 0.9304 -0.3665
vn 0.0005 0.0588 -0.9983
vn -0.0005 0.0588 -0.9983
vn -0.0012 0.0586 -0.9983
vn 0.0012 0.0586 -0.9983
vn 0.0000 0.4168 -0.9090
vn 0.0000 0.6484 -0.7613
vn 0.0000 0.2629 -0.9648
vn 0.0000 0.2144 -0.9767
vn 0.0000 0.2036 -0.9791
vn 0.0000 0.2206 -0.9754
vn -0.0001 0.2039 -0.9790
vn 0.0001 0.2039 -0.9790
vn 0.0000 0.2873 -0.9578
vn 0.0001 0.2870 -0.9579
vn 0.0000 0.5633 -0.8262
vn 0.0000 0.7465 0.6654
vn 0.0003 0.2614 0.9652
vn -0.0003 0.2614 0.9652
vn 0.0000 0.1168 0.9932
vn -0.0003 0.1163 0.9932
vn 0.0000 0.0773 0.9970
vn -0.0004 0.0684 0.9977
vn 0.0004 0.0684 0.9977
vn -0.0061 0.0805 -0.9967
vn 0.0061 0.0805 -0.9967
vn 0.0028 0.0793 -0.9968
vn -0.0028 0.0793 -0.9968
vn 0.9687 0.2477 0.0173
vn 0.9686 0.2481 -0.0171
vn 0.9998 0.0223 0.0001
vn 0.9998 0.0221 -0.0001
vn 0.9508 0.3075 0.0365
vn 0.9509 0.3073 -0.0368
vn 0.9968 -0.0757 0.0263
vn 0.9968 -0.0756 -0.0260
vn 0.9579 0.2871 0.0000
vn 0.9579 0.2870 0.0000
vn 0.9994 0.0239 0.0269
vn 0.9994 0.0239 -0.0269
vn 0.4067 0.9136 0.0000
vn 0.4066 0.9136 -0.0001
vn -0.7008 0.7134 0.0007
vn -0.7008 0.7134 -0.0007
vn -0.9686 0.2488 0.0004
vn -0.9686 0.2487 -0.0005
vn -0.9958 0.0916 0.0000
vn -0.9993 0.0382 -0.0003
vn -0.9993 0.0381 0.0003
vn -1.0000 0.0090 -0.0001
vn -1.0000 0.0092 0.0001
vn 1.0000 0.0088 0.0000
vn 0.9993 0.0383 0.0000
vn 0.9956 0.0942 0.0000
vn 0.9608 0.2773 0.0000
vn 0.4118 0.9113 0.0000
vn 0.9962 0.0872 0.0006
vn 0.9962 0.0872 -0.0006
vn 0.9962 0.0869 -0.0013
vn 0.9962 0.0869 0.0013
vn 0.8081 0.5890 -0.0001
vn 0.8080 0.5892 0.0000
vn 0.6139 0.7894 0.0000
vn 0.9228 0.3854 0.0000
vn 0.9488 0.3160 0.0000
vn 0.9541 0.2996 0.0000
vn 0.9467 0.3221 0.0000
vn 0.9540 0.2998 0.0000
vn 0.9134 0.4071 0.0000
vn 0.7274 0.6862 0.0000
vn -0.3986 0.9171 0.0000
vn -0.9194 0.3933 -0.0002
vn -0.9196 0.3928 0.0000
vn -0.9845 0.1755 0.0008
vn -0.9845 0.1755 -0.0008
vn -0.9931 0.1171 0.0000
vn -0.9947 0.1028 -0.0004
vn -0.9947 0.1028 0.0004
vn 0.9907 0.1361 0.0005
vn 0.9907 0.1361 -0.0005
vn 0.9907 0.1359 -0.0011
vn 0.9907 0.1359 0.0011
usemtl Material
s 1
f 1//1 2//2 3//3 4//4
f 5//5 6//6 2//7 1//8
f 7//9 8//10 6//11 5//12
f 9//13 10//13 8//10 7//9
f 11//14 12//15 10//13 9//13
f 13//16 14//17 12//15 11//14
f 15//18 16//18 14//17 13//16
f 17//19 18//20 16//18 15//18
f 19//21 20//22 18//20 17//19
f 21//23 22//23 20//22 19//21
f 23//24 24//24 22//24 21//24
f 25//25 26//25 24//26 23//26
f 27//27 28//27 26//25 25//25
f 29//28 30//28 28//27 27//27
f 31//29 32//29 30//28 29//28
f 33//30 34//30 32//29 31//29
f 35//31 36//31 34//30 33//30
f 37//26 38//26 36//26 35//26
f 39//32 40//33 38//34 37//35
f 41//36 42//36 40//37 39//37
f 43//38 44//38 42//36 41//36
f 45//39 46//40 44//38 43//38
f 47//41 48//42 46//40 45//39
f 49//43 50//43 48//44 47//44
f 51//45 52//46 50//43 49//43
f 53//47 54//47 52//46 51//45
f 55//48 56//48 54//47 53//47
f 57//49 58//50 56//48 55//48
f 59//51 60//52 58//50 57//49
f 61//53 62//53 60//52 59//51
f 63//54 64//55 62//53 61//53
f 4//56 3//57 64//58 63//59
f 65//60 1//61 4//62 66//63
f 67//64 5//65 1//66 65//67
f 68//68 7//69 5//70 67//71
f 69//72 9//73 7//69 68//68
f 70//74 11//75 9//73 69//72
f 71//76 13//77 11//75 70//74
f 72//78 15//78 13//77 71//76
f 73//79 17//80 15//78 72//78
f 74//81 19//81 17//80 73//79
f 75//82 21//82 19//81 74//81
f 76//24 23//24 21//24 75//24
f 77//83 25//83 23//84 76//84
f 78//85 27//86 25//83 77//83
f 79//87 29//87 27//86 78//85
f 80//88 31//89 29//87 79//87
f 81//90 33//90 31//89 80//88
f 82//31 35//31 33//90 81//90
f 83//84 37//84 35//84 82//84
f 84//91 39//92 37//93 83//94
f 85//95 41//96 39//97 84//97
f 86//98 43//98 41//96 85//95
f 87//99 45//99 43//98 86//98
f 88//100 47//100 45//99 87//99
f 89//101 49//101 47//102 88//102
f 90//103 51//103 49//101 89//101
f 91//104 53//104 51//103 90//103
f 92//105 55//105 53//104 91//104
f 93//106 57//107 55//105 92//105
f 94//108 59//109 57//107 93//106
f 95//110 61//111 59//109 94//108
f 96//112 63//113 61//111 95//110
f 66//114 4//115 63//116 96//117
f 97//118 65//119 66//120 98//121
f 99//122 67//123 65//124 97//125
f 100//126 68//127 67//128 99//129
f 101//130 69//131 68//127 100//126
f 102//132 70//133 69//131 101//130
f 103//134 71//135 70//133 102//132
f 104//136 72//136 71//135 103//134
f 105//137 73//138 72//136 104//136
f 106//139 74//140 73//138 105//137
f 107//26 75//26 74//140 106//139
f 108//24 76//24 75//24 107//24
f 109//141 77//141 76//23 108//23
f 110//142 78//142 77//141 109//141
f 111//143 79//143 78//142 110//142
f 112//144 80//144 79//143 111//143
f 113//145 81//145 80//144 112//144
f 114//31 82//31 81//145 113//145
f 115//23 83//23 82//23 114//23
f 116//146 84//147 83//148 115//149
f 117//150 85//150 84//151 116//151
f 118//152 86//152 85//150 117//150
f 119//153 87//153 86//152 118//152
f 120//154 88//154 87//153 119//153
f 121//155 89//155 88//156 120//157
f 122//158 90//159 89//155 121//155
f 123//160 91//160 90//159 122//158
f 124//161 92//161 91//160 123//160
f 125//162 93//163 92//161 124//161
f 126//164 94//165 93//163 125//162
f 127//166 95//166 94//165 126//164
f 128//167 96//168 95//166 127//166
f 98//169 66//170 96//171 128//172
f 2//173 97//174 98//175 3//176
f 6//177 99//178 97//179 2//180
f 8//181 100//182 99//183 6//184
f 10//185 101//186 100//182 8//181
f 12//187 102//188 101//186 10//185
f 14//189 103//190 102//188 12//187
f 16//191 104//191 103//190 14//189
f 18//192 105//193 104//191 16//191
f 20//194 106//195 105//193 18//192
f 22//84 107//84 106//195 20//194
f 24//24 108//24 107//24 22//24
f 26//196 109//196 108//82 24//82
f 28//197 110//197 109//196 26//196
f 30//198 111//198 110//197 28//197
f 32//199 112//199 111//198 30//198
f 34//200 113//200 112//199 32//199
f 36//31 114//31 113//200 34//200
f 38//82 115//82 114//82 36//82
f 40//201 116//202 115//203 38//204
f 42//205 117//206 116//207 40//207
f 44//208 118//208 117//206 42//205
f 46//209 119//209 118//208 44//208
f 48//210 120//210 119//209 46//209
f 50//211 121//211 120//212 48//212
f 52//213 122//213 121//211 50//211
f 54//214 123//214 122//213 52//213
f 56//215 124//215 123//214 54//214
f 58//216 125//217 124//215 56//215
f 60//218 126//219 125//217 58//216
f 62//220 127//220 126//219 60//218
f 64//221 128//222 127//220 62//220
f 3//223 98//224 128//225 64//226
