# Blender v2.79 (sub 0) OBJ File: 'window.blend'
# www.blender.org
mtllib frame.mtl
o Cube.003
v 1.130056 -0.000000 1.993937
v 1.130056 0.500000 1.993937
v 0.930056 -0.000000 1.993937
v 0.930056 0.500000 1.993937
v 1.130056 -0.000000 -2.206063
v 1.130056 0.500000 -2.206063
v 0.930056 -0.000000 -2.206063
v 0.930056 0.500000 -2.206063
v -1.000000 -0.000000 -2.000000
v -1.000000 0.500000 -2.000000
v -1.000000 -0.000000 -2.200000
v -1.000000 0.500000 -2.200000
v 1.000000 -0.000000 -2.000000
v 1.000000 0.500000 -2.000000
v 1.000000 -0.000000 -2.200000
v 1.000000 0.500000 -2.200000
v -1.000000 -0.000000 2.000000
v -1.000000 0.500000 2.000000
v -1.200000 -0.000000 2.000000
v -1.200000 0.500000 2.000000
v -1.000000 -0.000000 -2.200000
v -1.000000 0.500000 -2.200000
v -1.200000 -0.000000 -2.200000
v -1.200000 0.500000 -2.200000
v -1.000000 -0.000000 2.000000
v -1.000000 0.500000 2.000000
v -1.000000 -0.000000 1.800000
v -1.000000 0.500000 1.800000
v 1.000000 -0.000000 2.000000
v 1.000000 0.500000 2.000000
v 1.000000 -0.000000 1.800000
v 1.000000 0.500000 1.800000
vn 0.0000 0.0000 1.0000
vn -1.0000 0.0000 0.0000
vn 0.0000 0.0000 -1.0000
vn 1.0000 0.0000 -0.0000
vn 0.0000 -1.0000 0.0000
vn 0.0000 1.0000 -0.0000
usemtl Material.014
s off
f 1//1 2//1 4//1 3//1
f 3//2 4//2 8//2 7//2
f 7//3 8//3 6//3 5//3
f 5//4 6//4 2//4 1//4
f 3//5 7//5 5//5 1//5
f 8//6 4//6 2//6 6//6
usemtl Material.011
f 9//2 10//2 12//2 11//2
f 11//3 12//3 16//3 15//3
f 15//4 16//4 14//4 13//4
f 13//1 14//1 10//1 9//1
f 11//5 15//5 13//5 9//5
f 16//6 12//6 10//6 14//6
usemtl Material.012
f 17//1 18//1 20//1 19//1
f 19//2 20//2 24//2 23//2
f 23//3 24//3 22//3 21//3
f 21//4 22//4 18//4 17//4
f 19//5 23//5 21//5 17//5
f 24//6 20//6 18//6 22//6
usemtl Material.013
f 25//2 26//2 28//2 27//2
f 27//3 28//3 32//3 31//3
f 31//4 32//4 30//4 29//4
f 29//1 30//1 26//1 25//1
f 27//5 31//5 29//5 25//5
f 32//6 28//6 26//6 30//6
